<svg width="236" height="196" viewBox="0 0 236 196" fill="none" xmlns="http://www.w3.org/2000/svg">
<path d="M17.6736 196C15.1554 196 12.8083 195.596 10.6321 194.787C8.48704 193.948 6.62175 192.767 5.03626 191.243C3.45077 189.72 2.20725 187.933 1.3057 185.881C0.435232 183.829 0 181.575 0 179.119C0 176.663 0.435232 174.409 1.3057 172.357C2.20725 170.306 3.45077 168.518 5.03626 166.995C6.65284 165.471 8.53367 164.306 10.6787 163.497C12.8238 162.658 15.171 162.238 17.7202 162.238C20.5492 162.238 23.0984 162.736 25.3678 163.731C27.6684 164.694 29.5958 166.124 31.1502 168.021L26.3005 172.497C25.1813 171.223 23.9378 170.275 22.5699 169.653C21.202 169 19.7098 168.674 18.0932 168.674C16.5699 168.674 15.171 168.922 13.8964 169.42C12.6217 169.917 11.5181 170.632 10.5855 171.565C9.65284 172.497 8.92227 173.601 8.39377 174.876C7.89636 176.15 7.64766 177.565 7.64766 179.119C7.64766 180.673 7.89636 182.088 8.39377 183.363C8.92227 184.637 9.65284 185.741 10.5855 186.673C11.5181 187.606 12.6217 188.321 13.8964 188.819C15.171 189.316 16.5699 189.565 18.0932 189.565C19.7098 189.565 21.202 189.254 22.5699 188.632C23.9378 187.979 25.1813 187 26.3005 185.694L31.1502 190.171C29.5958 192.067 27.6684 193.513 25.3678 194.508C23.0984 195.502 20.5337 196 17.6736 196Z" fill="#F5F5F5"/>
<path d="M31.3695 195.44L45.9187 162.798H53.3799L67.9757 195.44H60.0483L48.1104 166.622H51.0949L39.1105 195.44H31.3695ZM38.6441 188.446L40.6493 182.71H57.4369L59.4887 188.446H38.6441Z" fill="#F5F5F5"/>
<path d="M82.0877 196C79.4763 196 76.9737 195.658 74.58 194.974C72.1862 194.259 70.2587 193.342 68.7976 192.223L71.3624 186.534C72.7613 187.528 74.409 188.352 76.3054 189.005C78.2328 189.627 80.1758 189.938 82.1344 189.938C83.6266 189.938 84.8235 189.798 85.725 189.518C86.6577 189.207 87.3416 188.787 87.7768 188.259C88.2121 187.73 88.4297 187.124 88.4297 186.44C88.4297 185.57 88.0877 184.886 87.4038 184.389C86.7198 183.86 85.8183 183.44 84.6991 183.129C83.58 182.787 82.3364 182.477 80.9686 182.197C79.6318 181.886 78.2794 181.513 76.9116 181.078C75.5748 180.642 74.3468 180.083 73.2276 179.399C72.1085 178.715 71.1914 177.813 70.4763 176.694C69.7924 175.575 69.4504 174.145 69.4504 172.404C69.4504 170.539 69.9479 168.844 70.9427 167.321C71.9686 165.767 73.4919 164.539 75.5126 163.637C77.5644 162.705 80.1292 162.238 83.2069 162.238C85.2587 162.238 87.2794 162.487 89.2691 162.984C91.2587 163.451 93.0152 164.166 94.5385 165.129L92.2069 170.865C90.6836 169.995 89.1603 169.357 87.6369 168.953C86.1136 168.518 84.6214 168.3 83.1603 168.3C81.6991 168.3 80.5022 168.471 79.5696 168.813C78.637 169.155 77.9686 169.606 77.5644 170.166C77.1603 170.694 76.9582 171.316 76.9582 172.031C76.9582 172.87 77.3002 173.554 77.9841 174.083C78.668 174.58 79.5696 174.984 80.6888 175.295C81.8079 175.606 83.0359 175.917 84.3727 176.228C85.7406 176.539 87.0929 176.896 88.4297 177.3C89.7976 177.705 91.0411 178.249 92.1603 178.933C93.2794 179.616 94.181 180.518 94.8649 181.637C95.5799 182.756 95.9375 184.171 95.9375 185.881C95.9375 187.715 95.4245 189.394 94.3986 190.917C93.3727 192.44 91.8338 193.668 89.782 194.601C87.7613 195.534 85.1965 196 82.0877 196Z" fill="#F5F5F5"/>
<path d="M108.654 195.44H101.099V162.798H108.654V195.44ZM124.042 182.057H108.094V175.668H124.042V182.057Z" fill="#F5F5F5"/>
<path d="M123.605 195.417V162.774H131.16V189.261H147.528V195.417H123.605Z" fill="#6C6C6C"/>
<path d="M151.749 195.417V162.774H159.303V195.417H151.749Z" fill="#6C6C6C"/>
<path d="M167.05 195.417V162.774H173.298L192.558 186.277H189.526V162.774H196.988V195.417H190.786L171.48 171.914H174.511V195.417H167.05Z" fill="#6C6C6C"/>
<path d="M211.472 187.955L211.053 179.235L226.674 162.774H235.068L220.985 177.93L216.788 182.406L211.472 187.955ZM204.711 195.417V162.774H212.218V195.417H204.711ZM227.047 195.417L215.436 181.194L220.379 175.831L235.861 195.417H227.047Z" fill="#6C6C6C"/>
<path d="M208.637 75.462C208.637 75.5117 208.637 75.5669 208.637 75.6165C208.621 92.0357 195.565 104.856 178.886 104.823C163.125 104.796 150.075 91.4562 150.135 75.462V0H123.413V50.7587C123.402 59.0373 123.386 67.3104 123.342 75.5889C123.292 84.734 125.409 93.2333 129.422 101.352C129.757 102.031 130.015 102.748 130.422 103.725H126.981C110.214 103.725 93.4478 103.697 76.6812 103.742C70.3649 103.758 64.0431 103.858 57.7268 104.051C41.2075 104.553 27.2665 90.5235 27.9262 73.9829C28.4485 60.8972 37.5409 49.6273 50.0141 46.6084C62.9216 43.4846 76.1755 49.2907 82.4534 61.0352C82.9393 61.9439 83.5194 63.5243 83.5194 63.5243C83.5194 63.5243 85.6077 63.5419 86.7137 63.5243C94.2229 63.4139 101.738 63.4801 109.252 63.4801H112.556C112.292 62.1721 112.166 61.2946 111.941 60.4391C104.299 31.878 76.9066 14.0074 47.9032 18.6544C18.9877 23.2904 -1.48402 49.1913 0.308083 78.8893C2.03422 107.461 25.9472 131.403 54.7033 131.784C97.1145 132.341 139.542 132.341 181.953 131.778C210.209 131.403 233.858 107.605 235.551 79.4412C235.634 78.1001 235.667 76.7755 235.661 75.462H208.642H208.637Z" fill="#F5F5F5"/>
</svg>
